<?xml version="1.0" encoding="UTF-8"?>
<!-- Generator: Adobe Illustrator 21.0.2, SVG Export Plug-In . SVG Version: 6.00 Build 0)  -->
<svg version="1.1" id="Layer_1" xmlns="http://www.w3.org/2000/svg" xmlns:xlink="http://www.w3.org/1999/xlink" x="0px" y="0px" viewBox="0 0 292 120" style="enable-background:new 0 0 292 120;" xml:space="preserve">
<style type="text/css">
	.st0{fill:#A41034;}
	.st1{fill:#FFFFFF;}
</style>
<rect class="st0" width="292" height="120"/>
<g>
	<path class="st1" d="M272,100H20V20h252V100z M21.3,98.5h249.3V21.5H21.3V98.5z"/>
	<polygon class="st1" points="67.1,52.2 67.1,47.8 38.8,44.6 38.8,44.5 67.1,41.3 67.1,36.9 37.1,40.4 37.1,48.5  "/>
	<polygon class="st1" points="61.9,61.1 61.9,69.1 67.1,69.1 67.1,56.6 56.6,56.6 56.6,61.1  "/>
	<polygon class="st1" points="48.9,61.1 48.9,67 54.1,67 54.1,67 54.2,67 56.6,65.1 51.7,65.1 51.7,56.6 37.1,56.6 37.1,61.1  "/>
	<path class="st1" d="M42,75.5l-0.8-4.3c-1.5,0.1-2.9,0.3-4.1,0.7v5.2C37.8,76.2,39.4,75.6,42,75.5"/>
	<path class="st1" d="M40.5,84.4c9.6,0,12.4-9.1,18.4-9.1c2.2,0,3.5,0.8,3.5,2.2c0,1-0.9,2.2-3.9,2.4l0.6,4.2c5-0.4,8.5-2.6,8.5-6.2   c0-4.4-3.2-6.9-8.8-6.9c-10.1,0-12,9.1-18.9,9.1c-1.4,0-2.4-0.5-2.9-1.3V84C38.1,84.2,39.2,84.4,40.5,84.4"/>
	<polygon class="st1" points="90.7,57.6 85.7,57.6 79.2,37.6 83.8,37.6 88.2,51.7 88.3,51.7 92.8,37.6 97.4,37.6  "/>
	<path class="st1" d="M103.8,37.6h4.5l7.5,20h-4.6l-1.5-4.5h-7.5l-1.6,4.5h-4.5L103.8,37.6z M103.4,49.9h5.2l-2.5-7.4H106   L103.4,49.9z"/>
	<polygon class="st1" points="117.6,37.6 121.9,37.6 130.3,51 130.4,51 130.4,37.6 134.5,37.6 134.5,57.6 130.1,57.6 121.7,44.2    121.7,44.2 121.7,57.6 117.6,57.6  "/>
	<path class="st1" d="M151.7,44.3c-0.1-0.5-0.2-1-0.5-1.4s-0.6-0.8-1-1.1c-0.4-0.3-0.8-0.6-1.3-0.7c-0.5-0.2-1-0.3-1.6-0.3   c-1,0-1.8,0.2-2.5,0.6c-0.7,0.4-1.3,0.9-1.7,1.5c-0.4,0.6-0.7,1.4-0.9,2.2c-0.2,0.8-0.3,1.7-0.3,2.6c0,0.8,0.1,1.7,0.3,2.5   c0.2,0.8,0.5,1.5,0.9,2.1s1,1.1,1.7,1.5c0.7,0.4,1.5,0.6,2.5,0.6c1.3,0,2.4-0.4,3.2-1.2c0.8-0.8,1.2-1.9,1.4-3.2h4.3   c-0.1,1.3-0.4,2.4-0.9,3.4c-0.5,1-1.1,1.9-1.9,2.6c-0.8,0.7-1.7,1.3-2.7,1.6c-1,0.4-2.2,0.6-3.4,0.6c-1.6,0-2.9-0.3-4.2-0.8   c-1.2-0.5-2.2-1.3-3.1-2.2c-0.8-0.9-1.5-2-1.9-3.3c-0.5-1.3-0.7-2.6-0.7-4.1c0-1.5,0.2-2.9,0.7-4.2c0.4-1.3,1.1-2.4,1.9-3.4   c0.8-1,1.9-1.7,3.1-2.2c1.2-0.5,2.6-0.8,4.2-0.8c1.1,0,2.1,0.2,3.1,0.5c1,0.3,1.9,0.8,2.6,1.4c0.8,0.6,1.4,1.4,1.9,2.3   c0.5,0.9,0.8,1.9,1,3.1H151.7z"/>
	<path class="st1" d="M158.3,47.7c0-1.5,0.2-2.9,0.7-4.2c0.5-1.3,1.1-2.4,1.9-3.4c0.8-1,1.9-1.7,3.1-2.2c1.2-0.5,2.6-0.8,4.2-0.8   c1.6,0,2.9,0.3,4.2,0.8c1.2,0.5,2.2,1.3,3.1,2.2c0.8,1,1.5,2.1,1.9,3.4c0.4,1.3,0.7,2.7,0.7,4.2c0,1.4-0.2,2.8-0.7,4.1   c-0.5,1.3-1.1,2.4-1.9,3.3c-0.8,0.9-1.9,1.7-3.1,2.2c-1.2,0.5-2.6,0.8-4.2,0.8c-1.6,0-2.9-0.3-4.2-0.8c-1.2-0.5-2.2-1.3-3.1-2.2   c-0.8-0.9-1.5-2-1.9-3.3C158.5,50.5,158.3,49.1,158.3,47.7z M162.7,47.7c0,0.8,0.1,1.7,0.3,2.5c0.2,0.8,0.5,1.5,0.9,2.1   c0.4,0.6,1,1.1,1.7,1.5c0.7,0.4,1.5,0.6,2.5,0.6c1,0,1.8-0.2,2.5-0.6c0.7-0.4,1.3-0.9,1.7-1.5c0.4-0.6,0.7-1.4,0.9-2.1   c0.2-0.8,0.3-1.6,0.3-2.5c0-0.9-0.1-1.7-0.3-2.6c-0.2-0.8-0.5-1.6-0.9-2.2c-0.4-0.6-1-1.2-1.7-1.5c-0.7-0.4-1.5-0.6-2.5-0.6   c-1,0-1.8,0.2-2.5,0.6c-0.7,0.4-1.3,0.9-1.7,1.5c-0.4,0.6-0.7,1.4-0.9,2.2C162.8,46,162.7,46.8,162.7,47.7z"/>
	<path class="st1" d="M198.1,50.1c0,2.7-0.8,4.7-2.3,6.1c-1.5,1.3-3.6,2-6.3,2c-2.7,0-4.8-0.7-6.3-2c-1.5-1.3-2.2-3.3-2.2-6.1V37.6   h4.4v12.5c0,0.5,0,1.1,0.1,1.6c0.1,0.5,0.3,1,0.6,1.4c0.3,0.4,0.7,0.7,1.3,1c0.5,0.2,1.3,0.4,2.1,0.4c1.6,0,2.7-0.4,3.3-1.1   s0.9-1.8,0.9-3.3V37.6h4.4V50.1z"/>
	<polygon class="st1" points="211.2,57.6 206.2,57.6 199.7,37.6 204.2,37.6 208.7,51.7 208.8,51.7 213.3,37.6 217.8,37.6  "/>
	<polygon class="st1" points="219.5,37.6 234.5,37.6 234.5,41.3 223.9,41.3 223.9,45.6 233.7,45.6 233.7,49 223.9,49 223.9,53.9    234.8,53.9 234.8,57.6 219.5,57.6  "/>
	<path class="st1" d="M237.7,37.6h10.8c0.9,0,1.7,0.1,2.4,0.4c0.7,0.3,1.3,0.7,1.9,1.2c0.5,0.5,0.9,1.1,1.2,1.8   c0.3,0.7,0.4,1.4,0.4,2.1c0,1.2-0.2,2.2-0.7,3.1c-0.5,0.9-1.3,1.5-2.4,2v0.1c0.5,0.2,1,0.4,1.3,0.7c0.4,0.3,0.6,0.7,0.9,1.1   c0.2,0.4,0.4,0.9,0.5,1.4c0.1,0.5,0.2,1,0.2,1.5c0,0.3,0,0.7,0.1,1.1c0,0.4,0.1,0.9,0.1,1.3c0,0.4,0.1,0.9,0.2,1.3   c0.1,0.4,0.3,0.8,0.5,1h-4.4c-0.1-0.3-0.2-0.7-0.3-1.1c-0.1-0.4-0.1-0.8-0.2-1.2s-0.1-0.9-0.1-1.3c0-0.4-0.1-0.9-0.1-1.2   c-0.1-1-0.5-1.8-1-2.3c-0.5-0.5-1.3-0.7-2.4-0.7h-4.4v7.8h-4.4V37.6z M242.1,46.7h4.8c1,0,1.7-0.2,2.3-0.7c0.5-0.4,0.8-1.2,0.8-2.2   c0-1-0.3-1.7-0.8-2.1c-0.5-0.4-1.3-0.7-2.3-0.7h-4.8V46.7z"/>
	<polygon class="st1" points="81.2,64.8 93.8,64.8 93.8,68.2 85.1,68.2 85.1,72.3 92.7,72.3 92.7,75.4 85.1,75.4 85.1,82.8    81.2,82.8  "/>
	<rect x="96.2" y="64.8" class="st1" width="3.9" height="18"/>
	<polygon class="st1" points="103.7,64.8 107.6,64.8 107.6,79.5 116.4,79.5 116.4,82.8 103.7,82.8  "/>
	<polygon class="st1" points="118.7,64.8 124.2,64.8 128.4,77.2 128.5,77.2 132.5,64.8 138,64.8 138,82.8 134.3,82.8 134.3,70.1    134.3,70.1 129.9,82.8 126.8,82.8 122.4,70.2 122.4,70.2 122.4,82.8 118.7,82.8  "/>
	<path class="st1" d="M151.3,76.8c0,0.6,0.1,1.1,0.3,1.5s0.5,0.8,0.9,1c0.4,0.3,0.8,0.5,1.3,0.6c0.5,0.1,1,0.2,1.5,0.2   c0.4,0,0.7,0,1.1-0.1c0.4-0.1,0.8-0.2,1.1-0.3c0.4-0.2,0.6-0.4,0.9-0.7c0.2-0.3,0.4-0.7,0.4-1.1c0-0.5-0.2-0.9-0.5-1.2   c-0.3-0.3-0.7-0.6-1.2-0.8c-0.5-0.2-1.1-0.4-1.7-0.5c-0.6-0.1-1.3-0.3-1.9-0.5c-0.7-0.2-1.3-0.4-2-0.6c-0.6-0.2-1.2-0.6-1.7-0.9   s-0.9-0.9-1.2-1.4c-0.3-0.6-0.5-1.3-0.5-2.1c0-0.9,0.2-1.7,0.6-2.4c0.4-0.7,0.9-1.2,1.5-1.7c0.6-0.5,1.4-0.8,2.2-1   c0.8-0.2,1.6-0.3,2.4-0.3c0.9,0,1.8,0.1,2.7,0.3c0.9,0.2,1.6,0.5,2.3,1c0.7,0.5,1.2,1.1,1.6,1.8c0.4,0.7,0.6,1.6,0.6,2.7h-3.8   c0-0.5-0.1-1-0.3-1.3c-0.2-0.4-0.4-0.6-0.8-0.8c-0.3-0.2-0.7-0.3-1.1-0.4c-0.4-0.1-0.9-0.1-1.3-0.1c-0.3,0-0.6,0-1,0.1   c-0.3,0.1-0.6,0.2-0.9,0.4c-0.3,0.2-0.5,0.4-0.6,0.6c-0.2,0.3-0.3,0.6-0.3,0.9c0,0.4,0.1,0.6,0.2,0.9c0.1,0.2,0.4,0.4,0.8,0.6   c0.4,0.2,0.9,0.4,1.6,0.6s1.6,0.4,2.7,0.7c0.2,0.1,0.5,0.1,0.9,0.2c0.4,0.1,0.7,0.2,1.1,0.4c0.4,0.2,0.8,0.4,1.2,0.6   c0.4,0.3,0.8,0.6,1.1,0.9s0.6,0.8,0.8,1.3c0.2,0.5,0.3,1.1,0.3,1.8c0,0.8-0.2,1.6-0.5,2.3c-0.3,0.7-0.8,1.3-1.4,1.8   c-0.6,0.5-1.4,0.9-2.3,1.2c-0.9,0.3-2,0.4-3.2,0.4c-1,0-2-0.1-2.9-0.4c-0.9-0.3-1.7-0.6-2.5-1.2c-0.7-0.5-1.3-1.2-1.7-2   c-0.4-0.8-0.6-1.8-0.6-2.9H151.3z"/>
	<path class="st1" d="M177,70.9c-0.1-0.5-0.2-0.9-0.5-1.2c-0.2-0.4-0.5-0.7-0.9-1c-0.4-0.3-0.8-0.5-1.2-0.7   c-0.4-0.2-0.9-0.2-1.4-0.2c-0.9,0-1.6,0.2-2.3,0.5c-0.6,0.3-1.1,0.8-1.5,1.4s-0.7,1.2-0.8,2c-0.2,0.7-0.3,1.5-0.3,2.3   c0,0.8,0.1,1.5,0.3,2.2c0.2,0.7,0.5,1.4,0.8,1.9c0.4,0.6,0.9,1,1.5,1.4c0.6,0.3,1.4,0.5,2.3,0.5c1.2,0,2.2-0.4,2.8-1.1   c0.7-0.7,1.1-1.7,1.2-2.9h3.8c-0.1,1.1-0.4,2.1-0.8,3c-0.4,0.9-1,1.7-1.7,2.3c-0.7,0.6-1.5,1.1-2.4,1.5c-0.9,0.3-1.9,0.5-3,0.5   c-1.4,0-2.6-0.2-3.7-0.7c-1.1-0.5-2-1.1-2.8-2c-0.8-0.8-1.3-1.8-1.7-3c-0.4-1.1-0.6-2.4-0.6-3.6c0-1.3,0.2-2.6,0.6-3.7   c0.4-1.2,1-2.2,1.7-3c0.8-0.9,1.7-1.5,2.8-2c1.1-0.5,2.3-0.7,3.7-0.7c1,0,1.9,0.1,2.8,0.4c0.9,0.3,1.7,0.7,2.4,1.2   c0.7,0.5,1.3,1.2,1.7,2c0.5,0.8,0.7,1.7,0.9,2.8H177z"/>
	<polygon class="st1" points="183.8,64.8 187.7,64.8 187.7,71.7 195,71.7 195,64.8 198.9,64.8 198.9,82.8 195,82.8 195,75.1    187.7,75.1 187.7,82.8 183.8,82.8  "/>
	<path class="st1" d="M201.7,73.9c0-1.3,0.2-2.6,0.6-3.7c0.4-1.2,1-2.2,1.7-3s1.7-1.5,2.8-2c1.1-0.5,2.3-0.7,3.7-0.7   c1.4,0,2.6,0.2,3.7,0.7c1.1,0.5,2,1.2,2.8,2c0.8,0.9,1.3,1.9,1.7,3c0.4,1.2,0.6,2.4,0.6,3.7c0,1.3-0.2,2.5-0.6,3.6   c-0.4,1.1-1,2.1-1.7,3c-0.8,0.8-1.7,1.5-2.8,2c-1.1,0.5-2.3,0.7-3.7,0.7c-1.4,0-2.6-0.2-3.7-0.7c-1.1-0.5-2-1.1-2.8-2   c-0.8-0.8-1.3-1.8-1.7-3C201.9,76.4,201.7,75.2,201.7,73.9z M205.7,73.9c0,0.8,0.1,1.5,0.3,2.2c0.2,0.7,0.5,1.4,0.8,1.9   c0.4,0.6,0.9,1,1.5,1.4c0.6,0.3,1.4,0.5,2.3,0.5c0.9,0,1.6-0.2,2.3-0.5c0.6-0.3,1.1-0.8,1.5-1.4c0.4-0.6,0.7-1.2,0.8-1.9   c0.2-0.7,0.3-1.4,0.3-2.2c0-0.8-0.1-1.6-0.3-2.3c-0.2-0.7-0.5-1.4-0.8-2s-0.9-1-1.5-1.4c-0.6-0.3-1.4-0.5-2.3-0.5   c-0.9,0-1.6,0.2-2.3,0.5c-0.6,0.3-1.1,0.8-1.5,1.4c-0.4,0.6-0.7,1.2-0.8,2C205.7,72.4,205.7,73.1,205.7,73.9z"/>
	<path class="st1" d="M221.4,73.9c0-1.3,0.2-2.6,0.6-3.7c0.4-1.2,1-2.2,1.7-3s1.7-1.5,2.8-2c1.1-0.5,2.3-0.7,3.7-0.7   c1.4,0,2.6,0.2,3.7,0.7c1.1,0.5,2,1.2,2.8,2c0.8,0.9,1.3,1.9,1.7,3c0.4,1.2,0.6,2.4,0.6,3.7c0,1.3-0.2,2.5-0.6,3.6   c-0.4,1.1-1,2.1-1.7,3c-0.8,0.8-1.7,1.5-2.8,2c-1.1,0.5-2.3,0.7-3.7,0.7c-1.4,0-2.6-0.2-3.7-0.7c-1.1-0.5-2-1.1-2.8-2   c-0.8-0.8-1.3-1.8-1.7-3C221.6,76.4,221.4,75.2,221.4,73.9z M225.3,73.9c0,0.8,0.1,1.5,0.3,2.2c0.2,0.7,0.5,1.4,0.8,1.9   c0.4,0.6,0.9,1,1.5,1.4c0.6,0.3,1.4,0.5,2.3,0.5c0.9,0,1.6-0.2,2.3-0.5c0.6-0.3,1.1-0.8,1.5-1.4c0.4-0.6,0.7-1.2,0.8-1.9   c0.2-0.7,0.3-1.4,0.3-2.2c0-0.8-0.1-1.6-0.3-2.3c-0.2-0.7-0.5-1.4-0.8-2s-0.9-1-1.5-1.4c-0.6-0.3-1.4-0.5-2.3-0.5   c-0.9,0-1.6,0.2-2.3,0.5c-0.6,0.3-1.1,0.8-1.5,1.4c-0.4,0.6-0.7,1.2-0.8,2C225.4,72.4,225.3,73.1,225.3,73.9z"/>
	<polygon class="st1" points="241.8,64.8 245.7,64.8 245.7,79.5 254.5,79.5 254.5,82.8 241.8,82.8  "/>
</g>
</svg>